<svg fill="#ababab" height="200px" width="200px" version="1.1" id="Capa_1" xmlns="http://www.w3.org/2000/svg" xmlns:xlink="http://www.w3.org/1999/xlink" viewBox="0 0 56.005 56.005" xml:space="preserve"><g id="SVGRepo_bgCarrier" stroke-width="0"></g><g id="SVGRepo_tracerCarrier" stroke-linecap="round" stroke-linejoin="round"></g><g id="SVGRepo_iconCarrier"> <g> <path d="M53.976,41.569c-0.426-0.023-0.791-0.099-1.116-0.23c-1.791-0.721-2.661-2.764-1.939-4.554 c0.329-0.816,0.959-1.476,1.773-1.854l1.706-0.793l-1.612-0.97c-1.322-0.796-1.866-2.407-1.292-3.833 c0.112-0.279,0.286-0.556,0.53-0.843l1.174-1.384l-1.797-0.254c-0.394-0.056-0.748-0.148-1.084-0.284 c-2.365-0.953-3.515-3.652-2.563-6.018c0.204-0.508,0.501-0.977,0.883-1.394l0.723-0.789l-0.836-0.668 c-1.148-0.915-2.394-1.716-3.703-2.379c-1.355-0.687-2.755-1.215-4.189-1.599l-0.741,1.371c-0.736,1.452-0.144,3.262,1.332,4.01 c0.493,0.249,0.689,0.852,0.44,1.344c-0.176,0.348-0.528,0.548-0.893,0.548c-0.152,0-0.306-0.034-0.451-0.108 c-2.458-1.246-3.445-4.262-2.199-6.721l0.478-0.885c-1.143-0.188-2.303-0.288-3.48-0.288c-8.154,0-15.509,4.516-19.193,11.784 c-0.227,0.449-0.417,0.909-0.612,1.368l0.828,0.423c0.712,0.36,1.524,0.424,2.287,0.175c0.761-0.249,1.38-0.779,1.742-1.495 c0.25-0.492,0.851-0.691,1.344-0.439c0.493,0.249,0.689,0.852,0.44,1.344c-0.499,0.983-0.104,2.189,0.88,2.688 c0.493,0.249,0.689,0.852,0.44,1.344c-0.176,0.348-0.528,0.548-0.893,0.548c-0.152,0-0.306-0.034-0.451-0.108 c-0.996-0.505-1.69-1.372-2.003-2.361c-0.276,0.153-0.57,0.281-0.876,0.382c-1.27,0.415-2.624,0.311-3.816-0.294l-0.619-0.316 c-1.354,4.26-1.365,8.818,0.052,13.15c0.607,1.854,1.463,3.578,2.509,5.164l4.716,2.197c2.205,1.322,3.949-1.329,4.022-1.442 c1.646-3.09,5.292-2.684,5.447-2.662c0.548,0.067,0.938,0.566,0.871,1.114c-0.067,0.547-0.57,0.932-1.11,0.871 c-0.112-0.013-2.453-0.243-3.484,1.688c-0.76,1.186-2.43,2.814-4.503,2.814c-0.701,0-1.449-0.187-2.223-0.64l-0.799-0.372 c1.537,1.49,3.303,2.761,5.267,3.757c3.046,1.545,6.312,2.327,9.705,2.328c0,0,0,0,0,0c1.379,0,2.731-0.139,4.049-0.389v-1.427 l0.108-0.213c0.427-0.842-0.622-2.557-2.664-3.593c-0.493-0.25-0.689-0.852-0.44-1.344s0.851-0.691,1.344-0.439 c2.882,1.462,4.432,4.064,3.651,6.04v0.504C46.76,53.511,51.537,49.63,54.28,44.22c0.169-0.333,0.313-0.673,0.456-1.012 l0.667-1.561L53.976,41.569z M31.491,40.518c-0.771,1.521-2.311,2.466-4.017,2.466c-0.701,0-1.403-0.168-2.032-0.487 c-1.072-0.543-1.869-1.472-2.242-2.614c-0.374-1.143-0.281-2.361,0.263-3.434c0.771-1.521,2.31-2.466,4.017-2.466 c0.701,0,1.403,0.168,2.032,0.487C31.725,35.591,32.613,38.305,31.491,40.518z M33.805,30.496c-0.701,0-1.403-0.168-2.032-0.487 c-2.213-1.121-3.101-3.835-1.979-6.048c0.771-1.521,2.311-2.466,4.017-2.466c0.701,0,1.403,0.168,2.032,0.487 c1.072,0.543,1.869,1.472,2.242,2.614c0.374,1.143,0.281,2.361-0.263,3.434C37.05,29.552,35.511,30.496,33.805,30.496z M44.443,43.72c-0.771,1.521-2.311,2.466-4.017,2.466c-0.701,0-1.403-0.168-2.032-0.487c-1.072-0.543-1.869-1.472-2.242-2.614 c-0.374-1.143-0.281-2.361,0.263-3.434c0.771-1.521,2.31-2.466,4.017-2.466c0.701,0,1.403,0.168,2.032,0.487 C44.677,38.793,45.565,41.507,44.443,43.72z"></path> <path d="M10.602,23.5c0-2.481,2.019-4.5,4.5-4.5c0.69,0,1.349,0.171,1.944,0.461c4.405-5.313,10.956-8.466,18.072-8.466 c0.218,0,0.44,0.021,0.659,0.027c-1.39-3.071-3.54-5.668-6.176-7.567V4c0.012,0.143,0.313,5.145-3.587,6.911l-0.205,0.067 c-0.007,0.001-1.235,0.308-1.208,0.981c0.022,0.552-0.407,1.018-0.959,1.039C23.628,13,23.615,13,23.602,13 c-0.534,0-0.977-0.422-0.999-0.96c-0.073-1.829,1.59-2.724,2.671-2.99c0.288-0.14,0.537-0.315,0.759-0.51 c-0.951-0.295-1.845-0.538-2.188-0.569c-0.398,0.099-0.833-0.055-1.075-0.416c-0.306-0.46-0.182-1.08,0.277-1.387 c0.345-0.23,0.734-0.489,4.13,0.633c0.5-1.348,0.428-2.712,0.427-2.735l0-1.88C25.02,0.786,22.101,0,19.057,0 C10.732,0,3.684,5.707,1.393,13.518l1.889,1.749c0,0,0.422,0.356,1.213,0.755C4.531,16.018,4.564,16,4.602,16c1.103,0,2-0.897,2-2 c0-0.553,0.448-1,1-1s1,0.447,1,1c0,1.161-0.505,2.199-1.297,2.93c0.145,0.026,0.279,0.058,0.431,0.079 c0.547,0.074,0.932,0.577,0.858,1.125C8.525,18.636,8.096,19,7.604,19c-0.044,0-0.09-0.003-0.135-0.009 c-3.514-0.473-5.452-2.173-5.533-2.245l-1.048-0.97C0.713,16.826,0.602,17.899,0.602,19c0,7.638,4.435,14.415,11.075,17.391 c-0.241-3,0.102-6.03,1.033-8.96l0.037-0.115C11.465,26.523,10.602,25.115,10.602,23.5z M16.102,5c2.481,0,4.5,2.019,4.5,4.5 s-2.019,4.5-4.5,4.5s-4.5-2.019-4.5-4.5S13.621,5,16.102,5z"></path> </g> </g></svg>