<svg viewBox="0 0 48.00 48.00" id="b" xmlns="http://www.w3.org/2000/svg" fill="#444444" stroke="#444444" stroke-width="1.6799999999999997"><g id="SVGRepo_bgCarrier" stroke-width="0"></g><g id="SVGRepo_tracerCarrier" stroke-linecap="round" stroke-linejoin="round"></g><g id="SVGRepo_iconCarrier"> <defs> <style>.c{fill:none;stroke:#444444;stroke-linecap:round;stroke-linejoin:round;}</style> </defs> <g> <path class="c" d="m22.9561,24.6779l-2.4263-17.1116"></path> <path class="c" d="m12.3501,6.3071c-.2109-.7871.2562-1.5962,1.0433-1.8071"></path> <path class="c" d="m25.0431,24.6779c-.5762.5762-1.5104.5762-2.0866,0"></path> <path class="c" d="m34.6066,4.5c.7871.2109,1.2542,1.02,1.0433,1.8071"></path> <g> <path class="c" d="m25.0431,24.6779l10.607-18.3712"></path> <path class="c" d="m34.6066,4.5H13.3936"></path> <path class="c" d="m12.3501,6.3071l10.607,18.3712"></path> <path class="c" d="m13.3926,4.5l16.2093,6.7879"></path> <path class="c" d="m35.649,6.3071l-13.6722,11.464"></path> </g> </g> <circle class="c" cx="21.3644" cy="38.8887" r=".7905"></circle> <path class="c" d="m21.3644,38.8887v1.5809"></path> <g> <g> <line class="c" x1="27.6888" y1="34.2561" x2="27.6888" y2="32.3272"></line> <line class="c" x1="27.6888" y1="34.2561" x2="26.5241" y2="35.7002"></line> <line class="c" x1="26.0023" y1="33.1968" x2="27.6888" y2="34.2561"></line> <line class="c" x1="27.6888" y1="34.2561" x2="28.8535" y2="35.7002"></line> <line class="c" x1="29.3753" y1="33.1968" x2="27.6888" y2="34.2561"></line> </g> <g> <line class="c" x1="33.1699" y1="34.4975" x2="33.1699" y2="32.5696"></line> <line class="c" x1="33.1699" y1="34.4975" x2="32.0052" y2="35.9426"></line> <line class="c" x1="31.4834" y1="33.4382" x2="33.1699" y2="34.4975"></line> <line class="c" x1="33.1699" y1="34.4975" x2="34.3346" y2="35.9426"></line> <line class="c" x1="34.8564" y1="33.4382" x2="33.1699" y2="34.4975"></line> </g> <g> <path class="c" d="m26.1077,37.8673v4.5786c0,.584-.4701,1.0541-1.0541,1.0541h-7.3784c-.584,0-1.0541-.4701-1.0541-1.0541v-5.7973c0-.584.4701-1.0541,1.0541-1.0541h6.1597"></path> <g> <path class="c" d="m12.932,32.4326c0-1.7464,1.4158-3.1622,3.1622-3.1622s3.1622,1.4158,3.1622,3.1622"></path> <path class="c" d="m19.2563,32.4326v1.0538"></path> <path class="c" d="m12.932,32.1691v1.3172"></path> </g> </g> </g> </g></svg>